<?xml version="1.0" standalone="no"?>
<!DOCTYPE svg PUBLIC "-//W3C//DTD SVG 20010904//EN"
 "http://www.w3.org/TR/2001/REC-SVG-20010904/DTD/svg10.dtd">
<svg version="1.0" xmlns="http://www.w3.org/2000/svg"
 width="500.000000pt" height="500.000000pt" viewBox="0 0 500.000000 500.000000"
 preserveAspectRatio="xMidYMid meet">

<g transform="translate(0.000000,500.000000) scale(0.100000,-0.100000)"
fill="#000000" stroke="none">
<path d="M2488 4334 c-16 -8 -34 -30 -42 -49 -12 -27 -18 -32 -36 -28 -18 5
-21 2 -18 -13 2 -12 11 -18 21 -16 15 2 16 -2 11 -25 -9 -36 -13 -41 -24 -23
-7 11 -12 12 -21 3 -14 -14 -2 -36 17 -29 15 6 18 -11 8 -39 -5 -12 -9 -13
-14 -5 -9 15 -30 4 -30 -16 0 -8 8 -14 18 -14 15 0 17 -6 14 -35 -4 -32 -22
-61 -22 -36 0 6 -7 11 -15 11 -8 0 -15 -7 -15 -15 0 -8 9 -15 20 -15 17 0 19
-4 14 -27 -7 -31 -24 -55 -24 -35 0 7 -7 12 -15 12 -8 0 -15 -9 -15 -21 0 -16
4 -19 22 -14 17 6 20 4 15 -10 -4 -9 -7 -22 -7 -29 0 -9 -9 -12 -26 -8 -20 4
-25 1 -22 -9 3 -8 13 -13 22 -13 11 1 16 -6 16 -22 0 -14 11 -32 30 -46 27
-20 30 -27 29 -77 0 -31 -6 -99 -12 -151 l-13 -94 -43 -13 c-89 -26 -189 -115
-220 -196 -17 -44 -13 -137 8 -183 25 -56 106 -134 169 -163 29 -14 52 -27 52
-30 0 -4 -20 -29 -45 -57 -24 -28 -41 -54 -38 -58 3 -3 2 -6 -3 -6 -5 0 -14 9
-19 21 -6 12 -22 28 -37 37 -25 15 -30 15 -64 -3 -49 -26 -72 -59 -83 -120 -5
-27 -14 -51 -20 -53 -37 -12 -50 -40 -65 -137 -40 -253 -105 -625 -112 -636
-3 -5 -27 -9 -55 -9 l-49 0 0 83 c0 130 6 152 46 166 44 16 74 66 74 125 0 39
-3 46 -20 46 -19 0 -20 7 -20 94 0 63 -4 97 -12 104 -43 35 -168 37 -209 3
-18 -14 -20 -28 -20 -109 0 -78 -2 -92 -15 -92 -14 0 -16 -10 -12 -61 4 -54 9
-66 36 -90 18 -16 41 -29 52 -29 16 0 20 -7 20 -30 0 -16 3 -30 8 -30 4 0 6
-43 4 -95 -3 -92 -4 -95 -27 -95 -35 0 -117 106 -107 140 23 87 -13 184 -84
230 -26 16 -58 30 -71 30 l-23 0 0 264 c0 166 4 267 10 271 6 3 10 15 10 26 0
12 7 19 19 19 11 0 23 5 26 10 9 15 -15 42 -32 36 -7 -3 -13 1 -13 9 0 9 10
15 25 15 15 0 25 6 25 14 0 18 -27 39 -40 31 -5 -3 -10 2 -10 13 0 13 7 18 23
18 29 -1 31 38 2 42 -11 1 -26 16 -34 32 -12 30 -14 30 -90 30 -63 0 -81 -4
-94 -18 -10 -10 -17 -24 -17 -30 0 -7 -9 -12 -20 -12 -15 0 -20 -7 -20 -26 0
-23 3 -25 25 -20 20 5 25 3 25 -13 0 -13 -8 -21 -22 -23 -15 -2 -24 -11 -26
-27 -3 -21 -1 -23 22 -17 20 5 24 3 20 -9 -4 -8 -15 -15 -25 -15 -12 0 -19 -7
-19 -19 0 -23 23 -34 39 -18 8 8 11 4 11 -14 0 -14 5 -30 11 -36 7 -7 12 -103
15 -271 l4 -260 -33 -11 c-62 -21 -120 -100 -133 -182 l-7 -42 -19 49 c-11 27
-31 96 -46 154 -24 96 -26 123 -26 315 -1 236 9 301 71 485 86 255 271 525
469 686 140 113 157 124 274 187 167 89 320 143 485 171 l70 12 8 39 c4 22 9
55 10 73 l3 33 -46 -6 c-380 -50 -734 -226 -1005 -499 -188 -190 -317 -397
-399 -639 -71 -209 -89 -339 -83 -572 6 -224 24 -321 96 -520 46 -129 47 -134
27 -139 -12 -3 -30 -6 -41 -6 -11 0 -44 -11 -72 -25 -69 -31 -93 -70 -93 -149
0 -54 3 -61 35 -92 l35 -33 0 -146 0 -147 -31 -43 c-28 -39 -31 -49 -27 -99 5
-61 39 -116 86 -140 71 -36 122 -45 264 -47 130 -2 148 0 198 21 30 13 62 29
70 36 8 7 59 19 113 27 l99 14 131 -65 c546 -269 1054 -266 1583 9 l98 51 100
-12 c84 -10 111 -18 159 -46 92 -53 145 -67 240 -62 128 7 219 65 266 168 39
86 24 180 -43 281 l-36 54 14 51 c7 28 33 79 57 113 39 55 44 69 44 116 0 39
-6 61 -21 82 -24 33 -109 82 -141 83 -13 0 -23 3 -23 6 0 3 13 36 30 74 38 87
94 281 111 385 7 44 13 159 13 255 0 145 -4 195 -23 290 -33 163 -93 339 -153
450 -175 324 -397 550 -713 724 -141 78 -403 167 -535 182 -54 6 -56 5 -98
-35 -58 -55 -55 -83 8 -94 131 -23 213 -42 285 -64 103 -32 309 -131 405 -196
340 -227 573 -576 662 -991 29 -134 31 -395 4 -531 -19 -100 -41 -181 -64
-239 l-15 -38 -24 63 c-30 77 -52 193 -53 270 0 77 -20 94 -106 93 l-64 0 -2
215 c-1 263 -1 269 23 299 10 14 19 32 19 41 0 14 2 14 10 1 8 -13 12 -13 27
3 22 22 6 54 -26 49 -17 -3 -21 2 -21 27 0 17 5 31 10 31 6 0 10 -7 10 -16 0
-11 5 -14 16 -10 9 3 18 6 20 6 9 0 3 37 -8 48 -7 7 -20 12 -30 12 -11 0 -18
7 -18 20 0 11 5 20 10 20 6 0 10 -7 10 -15 0 -13 3 -13 20 -3 30 19 22 52 -12
56 -16 2 -28 9 -28 18 0 16 17 19 22 3 5 -16 38 1 38 20 0 23 -19 41 -37 34
-9 -4 -22 3 -32 16 -9 11 -26 23 -39 26 -12 2 -26 6 -31 9 -20 13 -106 -8
-129 -31 -13 -13 -31 -22 -40 -21 -11 2 -18 -5 -20 -21 -4 -26 17 -55 25 -33
6 17 23 15 23 -3 0 -8 -8 -15 -19 -15 -30 0 -45 -25 -31 -50 9 -16 15 -19 23
-11 15 15 27 14 27 -4 0 -9 -9 -15 -25 -15 -21 0 -25 -5 -25 -29 0 -32 18 -51
30 -31 5 8 9 3 12 -14 4 -22 2 -26 -18 -26 -19 0 -24 -5 -24 -24 0 -13 7 -26
15 -30 8 -3 15 -1 15 4 0 6 4 10 10 10 5 0 7 -7 3 -16 -3 -9 4 -26 18 -40 24
-25 24 -29 27 -264 l3 -238 -65 -4 c-42 -2 -72 -10 -82 -19 -10 -11 -18 -47
-24 -105 -5 -58 -23 -136 -50 -222 -35 -111 -42 -142 -38 -192 4 -54 2 -60
-14 -60 -18 0 -19 10 -16 184 3 175 4 186 26 208 19 22 22 35 22 116 0 81 -2
94 -22 112 -26 24 -80 27 -102 4 -12 -12 -16 -38 -16 -114 0 -90 2 -101 23
-120 21 -20 22 -29 25 -206 l3 -184 -33 0 c-61 0 -47 -53 -148 600 -12 74 -23
142 -26 150 -6 22 -116 89 -203 125 -47 19 -76 36 -73 43 2 7 -17 35 -43 64
l-46 51 63 34 c78 42 118 80 152 146 47 95 29 207 -47 289 -37 39 -115 87
-163 99 l-42 11 -7 89 c-3 49 -11 89 -16 89 -5 0 -9 38 -9 84 0 75 3 88 25
114 32 38 31 63 -5 197 -16 61 -30 116 -30 122 0 7 11 15 25 19 31 8 75 59 75
87 0 32 -36 86 -66 97 -34 13 -54 12 -86 -6z m27 -114 c0 -8 -10 -16 -22 -18
-18 -3 -23 2 -23 18 0 16 5 21 23 18 12 -2 22 -10 22 -18z m-25 -86 c0 -20
-30 -30 -40 -13 -11 17 7 40 26 32 8 -3 14 -12 14 -19z m-22 -81 c-5 -26 -38
-29 -38 -4 0 15 6 21 21 21 14 0 19 -5 17 -17z m-23 -87 c0 -22 -14 -29 -33
-18 -17 12 -4 44 17 40 9 -2 16 -12 16 -22z m-17 -83 c-2 -10 -10 -18 -18 -18
-8 0 -16 8 -18 18 -2 12 3 17 18 17 15 0 20 -5 18 -17z m-18 -73 c0 -11 -6
-20 -13 -20 -19 0 -27 10 -20 26 8 21 33 17 33 -6z m51 -100 c5 0 9 5 9 11 0
6 7 9 15 5 12 -4 15 3 15 34 0 22 4 40 10 40 5 0 9 -17 9 -37 -1 -129 1 -163
10 -163 6 0 11 -7 11 -15 0 -8 -6 -14 -12 -12 -8 1 -14 -12 -16 -35 -2 -28 1
-38 12 -38 8 0 17 6 19 13 3 6 6 -226 6 -517 l1 -529 -71 6 -70 6 3 -52 3 -52
63 -3 c46 -2 64 1 68 11 4 11 21 13 72 10 95 -6 144 28 161 108 10 51 35 44
39 -10 2 -31 -6 -71 -29 -133 -45 -125 -40 -183 30 -340 28 -64 53 -134 54
-155 2 -36 0 -38 -28 -38 -25 0 -31 5 -35 29 -7 40 -34 56 -56 34 -10 -9 -18
-27 -19 -40 -1 -21 -7 -23 -71 -26 -69 -3 -69 -3 -81 28 l-11 30 -92 0 -91 0
-11 -31 c-10 -30 -13 -31 -51 -25 -52 9 -62 17 -83 72 -23 61 -15 123 32 224
l39 85 0 140 c0 77 4 146 8 153 5 6 23 12 42 12 l33 0 4 536 c3 496 4 537 21
548 21 16 25 106 5 107 -10 0 -10 2 0 6 7 2 13 25 14 51 l2 47 3 -47 c2 -27 8
-48 14 -48z m1086 -446 c7 -18 -17 -38 -31 -24 -11 11 -1 40 14 40 6 0 13 -7
17 -16z m121 -6 c-2 -13 -7 -23 -13 -23 -5 0 -11 10 -13 23 -2 15 2 22 13 22
11 0 15 -7 13 -22z m-118 -73 c0 -19 -20 -29 -32 -17 -15 15 -2 43 17 36 8 -3
15 -12 15 -19z m123 8 c8 -7 -11 -33 -24 -33 -5 0 -9 9 -9 20 0 19 20 27 33
13z m-126 -79 c8 -21 -13 -42 -28 -27 -13 13 -5 43 11 43 6 0 13 -7 17 -16z
m120 -22 c-16 -15 -19 -15 -27 -2 -7 11 -5 19 7 28 25 18 42 -3 20 -26z m-97
-53 c0 12 5 21 10 21 6 0 10 -11 10 -25 0 -34 20 -32 21 3 1 16 3 20 6 10 5
-20 18 -23 28 -8 3 6 13 10 21 10 22 0 -52 -93 -76 -97 -11 -2 -20 3 -20 10 0
7 -16 28 -35 47 -19 19 -35 38 -35 43 0 5 16 -1 35 -13 l35 -22 0 21z m-2310
-135 c0 -41 -4 -63 -10 -59 -5 3 -10 33 -10 66 0 33 4 59 10 59 6 0 10 -29 10
-66z m79 34 c0 -18 -4 -55 -9 -83 -7 -46 -8 -43 -8 33 1 45 5 82 9 82 5 0 9
-15 8 -32z m2301 -28 c0 -5 -22 -10 -50 -10 -27 0 -50 5 -50 10 0 6 23 10 50
10 28 0 50 -4 50 -10z m-39 -60 l2 35 4 -32 c3 -22 10 -33 21 -33 11 0 13 -3
5 -11 -6 -6 -28 -9 -49 -7 -36 3 -39 5 -42 37 -2 21 0 31 7 26 6 -3 11 -15 11
-26 0 -10 4 -19 10 -19 5 0 7 15 5 33 l-5 32 14 -35 14 -35 3 35z m-24 -92
c-3 -7 -5 -2 -5 12 0 14 2 19 5 13 2 -7 2 -19 0 -25z m43 -33 c5 3 11 1 15 -5
3 -5 -1 -10 -9 -10 -24 0 -22 -80 2 -81 16 -1 16 -2 0 -6 -23 -6 -26 -73 -3
-73 8 0 15 -4 15 -10 0 -10 -21 -14 -47 -11 -8 1 -13 -10 -13 -28 0 -32 19
-54 21 -24 1 17 2 17 6 0 2 -9 8 -15 13 -12 5 3 11 1 15 -5 3 -5 -1 -10 -9
-10 -12 0 -16 -10 -16 -36 0 -28 3 -35 15 -30 9 3 15 0 15 -9 0 -8 -7 -15 -15
-15 -11 0 -15 -11 -15 -40 0 -39 12 -53 24 -27 3 6 4 3 3 -8 -2 -11 -9 -19
-15 -17 -8 1 -12 -12 -12 -38 0 -31 4 -40 18 -41 16 -1 16 -2 0 -6 -13 -3 -18
-15 -18 -44 0 -21 3 -38 8 -37 4 2 7 -1 7 -7 0 -5 -3 -9 -7 -7 -5 1 -8 -4 -8
-10 0 -9 -4 -8 -10 2 -8 13 -10 12 -10 -4 0 -20 0 -20 -15 0 -14 19 -14 19
-15 -1 -1 -18 -2 -18 -8 -2 -4 10 -5 37 -3 60 l5 42 7 -40 6 -40 2 43 c1 31
-3 42 -14 42 -12 0 -15 16 -13 88 1 48 3 70 5 50 6 -51 23 -49 23 2 0 29 -4
40 -15 40 -10 0 -15 10 -14 33 0 29 1 30 9 10 10 -25 30 -31 30 -10 0 8 4 7
10 -3 7 -11 10 -5 10 23 0 35 -2 37 -30 37 -24 0 -30 4 -30 22 0 21 0 21 15 2
13 -18 14 -17 15 19 0 26 -4 37 -15 37 -8 0 -15 5 -15 10 0 6 7 10 15 10 10 0
15 11 15 35 0 24 -5 35 -15 35 -10 0 -15 9 -14 28 2 23 2 24 6 5 7 -36 23 -27
25 15 l1 37 4 -37 c6 -51 23 -49 23 2 0 36 -2 40 -25 40 -22 0 -25 4 -24 38 2
36 2 36 8 7 3 -18 13 -31 24 -33 13 -2 17 5 19 35 l1 38 4 -38 c2 -20 8 -35
13 -32z m-1416 29 c3 -9 6 -29 6 -45 0 -73 55 -139 116 -139 24 0 34 -5 34
-15 0 -53 -120 -3 -154 63 -8 15 -17 45 -20 66 -9 54 -13 55 -31 13 -23 -57
-18 -103 26 -232 62 -182 56 -255 -33 -455 -22 -47 -30 -81 -30 -122 l0 -58
-50 0 -51 0 5 38 c6 38 25 88 94 242 34 75 38 94 38 160 -1 61 -7 89 -34 155
-42 101 -52 211 -25 280 9 25 24 49 33 55 26 15 69 12 76 -6z m-947 -541 c-1
-87 -3 -16 -3 157 0 173 2 244 3 158 2 -87 2 -229 0 -315z m20 0 c-1 -87 -3
-16 -3 157 0 173 2 244 3 158 2 -87 2 -229 0 -315z m31 155 c-1 -195 -4 -272
-7 -203 -6 119 -3 515 5 515 2 0 3 -141 2 -312z m19 -155 c-1 -87 -3 -16 -3
157 0 173 2 244 3 158 2 -87 2 -229 0 -315z m20 0 c-1 -87 -3 -16 -3 157 0
173 2 244 3 158 2 -87 2 -229 0 -315z m1482 361 c24 -31 37 -105 22 -131 -9
-15 -10 -10 -11 25 0 53 -25 104 -47 100 -11 -2 -21 -21 -29 -52 -22 -85 -88
-129 -159 -106 -53 18 -45 36 15 32 44 -4 53 -1 80 26 19 20 30 41 30 59 0 67
60 96 99 47z m-303 -131 c-7 -7 -97 -5 -105 3 -2 2 22 4 54 4 32 0 55 -3 51
-7z m-839 -140 c-2 -27 -3 -5 -3 47 0 52 1 74 3 48 2 -27 2 -69 0 -95z m61 47
c0 -49 -4 -90 -9 -90 -5 0 -9 41 -9 90 0 50 4 90 9 90 5 0 9 -40 9 -90z m-111
-53 c-2 -23 -3 -1 -3 48 0 50 1 68 3 42 2 -26 2 -67 0 -90z m150 0 c-2 -23 -3
-1 -3 48 0 50 1 68 3 42 2 -26 2 -67 0 -90z m1063 118 c0 -3 -9 -24 -20 -47
-26 -54 -35 -151 -21 -217 6 -29 29 -88 51 -131 40 -81 74 -179 65 -189 -9 -9
-21 13 -39 74 -10 33 -22 65 -27 71 -25 32 -79 198 -79 245 0 51 46 199 63
199 4 0 7 -2 7 -5z m-342 -12 c-16 -2 -40 -2 -55 0 -16 2 -3 4 27 4 30 0 43
-2 28 -4z m1007 -95 c-11 -130 -6 -237 12 -264 29 -44 136 -41 184 7 23 23 29
24 29 5 0 -8 6 -17 13 -19 7 -3 6 -6 -5 -6 -9 -1 -17 -9 -17 -18 1 -29 -7 -68
-15 -81 -5 -8 3 -12 26 -13 28 -2 29 -3 7 -6 -21 -3 -25 -8 -21 -28 2 -14 13
-26 26 -28 11 -2 -69 -4 -179 -4 -110 0 -184 3 -165 7 34 6 32 9 -10 23 -8 3
3 6 25 6 47 1 37 18 -15 24 -33 4 -33 4 8 5 23 1 42 7 42 12 0 6 -19 11 -42
11 l-43 1 38 8 c54 10 57 20 6 21 -34 2 -37 3 -14 6 41 6 57 23 21 23 -15 0
-25 4 -21 10 3 6 15 10 26 10 30 0 22 20 -8 21 -24 2 -25 2 -5 6 12 2 22 9 22
14 0 5 -10 10 -22 10 l-23 2 23 4 c31 6 28 23 -5 24 -28 1 -28 1 -4 8 14 4 27
13 29 20 3 10 0 12 -12 8 -9 -4 -16 -2 -16 3 0 6 7 10 15 10 24 0 17 20 -7 21
l-23 2 23 4 c26 5 29 20 5 26 -14 4 -12 5 5 6 24 1 30 16 10 24 -7 3 -4 6 7 7
16 1 14 4 -10 15 l-30 13 28 1 c15 1 27 6 27 11 0 6 -12 11 -27 11 -27 2 -27
2 -3 6 44 8 47 23 5 24 l-40 1 35 11 35 11 -32 4 c-25 2 -33 8 -33 23 0 17 7
19 61 19 l61 0 -7 -82z m275 67 c0 -9 -9 -15 -21 -15 -25 0 -47 -20 -41 -38 2
-6 0 -12 -5 -12 -13 0 -12 33 1 42 7 5 6 8 -4 8 -20 0 -34 -11 -48 -35 -10
-17 -11 -14 -12 23 l0 42 65 0 c51 0 65 -3 65 -15z m-46 -101 c4 -10 1 -14 -6
-12 -15 5 -23 28 -10 28 5 0 13 -7 16 -16z m-2317 -91 c21 -9 48 -36 65 -62
26 -40 29 -53 25 -101 -2 -30 -7 -62 -11 -71 -5 -11 6 -32 35 -65 l42 -49
-119 -3 c-65 -1 -128 2 -139 7 -11 6 -38 17 -59 26 -45 18 -44 30 1 15 83 -29
167 77 117 148 -10 15 -16 48 -17 97 -2 84 1 86 60 58z m288 -8 c54 0 88 5 99
14 28 24 20 -12 -10 -40 -22 -20 -36 -24 -89 -24 -53 0 -67 4 -89 24 -30 28
-38 63 -9 40 11 -9 43 -14 98 -14z m-505 -75 c0 -33 -4 -60 -10 -60 -11 0 -14
78 -4 104 11 28 14 18 14 -44z m-19 -97 c-12 -20 -14 -14 -5 12 4 9 9 14 11
11 3 -2 0 -13 -6 -23z m1367 -190 c4 -27 -21 -35 -99 -31 -51 3 -54 5 -57 31
l-3 28 78 -3 c72 -3 78 -5 81 -25z m-788 -164 l0 -82 -37 7 c-21 3 -74 9 -117
13 -73 6 -79 5 -73 -11 4 -10 7 -34 7 -53 l0 -36 73 7 c39 4 82 10 95 13 21 5
22 3 22 -65 l0 -71 -92 2 -93 2 -3 -58 c-3 -53 -1 -58 15 -53 48 15 151 36
176 36 l27 0 0 -85 0 -85 -42 0 c-24 0 -115 -11 -203 -24 -145 -22 -167 -28
-238 -65 -74 -39 -123 -50 -161 -35 -13 5 -12 10 7 36 20 27 22 44 25 174 l3
144 -48 -6 c-80 -10 -75 1 -71 -153 3 -121 5 -142 23 -161 16 -18 17 -23 5
-30 -25 -16 -93 -11 -140 11 -87 39 -101 72 -50 117 l30 26 0 210 0 210 -42
37 c-39 33 -41 38 -28 54 45 55 208 62 242 11 15 -22 7 -55 -17 -74 -22 -18
-25 -27 -25 -87 0 -65 1 -67 23 -62 12 3 39 9 60 12 37 7 37 8 37 56 0 40 -5
55 -31 83 -35 40 -33 66 6 92 19 12 46 15 120 12 52 -1 95 0 95 5 0 4 95 7
210 7 l210 0 0 -81z m230 68 c15 -8 47 -53 85 -121 l60 -110 3 55 c3 48 0 56
-22 74 -33 26 -33 59 -2 90 l25 25 248 -3 c234 -2 250 -3 289 -24 39 -21 104
-84 104 -102 0 -4 -11 -13 -25 -19 -33 -15 -65 -69 -65 -108 0 -38 37 -95 73
-112 43 -21 33 -55 -37 -130 -60 -65 -95 -76 -255 -80 l-144 -4 26 32 27 32 0
213 c0 210 0 214 -22 229 -30 21 -44 20 -68 -4 -19 -19 -20 -33 -20 -238 0
-181 3 -221 16 -240 l15 -22 -69 0 c-89 0 -103 11 -167 130 l-50 91 -3 -90
c-1 -50 2 -99 7 -110 6 -10 7 -21 4 -25 -3 -3 -44 -6 -91 -6 -70 0 -83 2 -73
14 7 9 12 86 13 229 2 233 2 234 -54 263 -34 18 -36 47 -6 68 28 20 142 21
178 3z m1246 -14 c84 -44 132 -130 115 -204 -11 -49 -36 -83 -76 -105 -19 -10
-35 -20 -35 -23 0 -12 113 -139 134 -150 54 -29 56 -20 56 203 l0 205 -31 32
c-50 52 -38 64 69 67 52 2 101 -2 112 -8 15 -8 20 -8 20 1 0 15 197 7 228 -10
12 -6 23 -7 26 -2 20 32 163 15 203 -25 l24 -24 -31 -45 c-17 -25 -37 -64 -46
-87 -8 -22 -27 -65 -43 -94 l-28 -52 54 -83 c29 -46 58 -99 64 -117 36 -110
-86 -225 -223 -209 -30 4 -77 21 -117 43 -36 21 -77 43 -91 50 -14 7 -104 22
-200 34 -264 32 -251 29 -239 52 14 26 -1 67 -56 153 l-44 70 -1 -95 c0 -71 4
-101 16 -118 l15 -22 -90 0 c-90 0 -103 4 -78 29 9 9 12 69 12 232 l0 221 -37
30 c-40 32 -46 46 -25 67 9 10 48 12 157 9 124 -3 151 -7 186 -25z m-362 -174
c30 -35 32 -58 11 -98 -15 -31 -33 -41 -70 -41 -37 0 -55 10 -70 41 -22 41
-18 77 10 104 36 37 86 34 119 -6z m-40 -483 c15 -5 16 -9 6 -21 -8 -10 -17
-12 -24 -6 -16 14 -39 -3 -34 -25 2 -12 12 -19 25 -19 13 0 28 -6 34 -12 17
-17 -36 -29 -67 -14 -21 9 -25 17 -22 48 2 28 9 41 27 50 14 6 27 10 30 9 3
-2 14 -6 25 -10z m137 -11 c-1 -6 -9 -11 -19 -11 -9 -1 -23 -2 -30 -3 -8 -1
-12 -10 -10 -23 2 -17 10 -23 31 -24 15 -1 30 -4 34 -8 13 -13 -15 -27 -48
-24 -59 5 -72 77 -19 105 24 12 62 4 61 -12z m-931 -40 c0 -42 -3 -55 -15 -55
-12 0 -15 13 -15 55 0 42 3 55 15 55 12 0 15 -13 15 -55z m127 43 c-2 -7 -14
-12 -26 -11 -28 4 -27 -15 2 -19 17 -2 22 -10 22 -33 0 -26 -4 -30 -30 -33
-35 -3 -61 11 -51 27 5 8 13 8 26 1 11 -6 21 -6 24 -1 3 5 -5 12 -18 15 -28 7
-41 33 -25 52 15 18 82 19 76 2z m123 2 c0 -6 -7 -13 -15 -16 -10 -4 -15 -20
-15 -45 0 -28 -4 -39 -15 -39 -11 0 -15 11 -15 40 0 33 -3 40 -20 40 -11 0
-20 7 -20 15 0 11 12 15 50 15 28 0 50 -5 50 -10z m60 -45 c0 -42 -3 -55 -15
-55 -12 0 -15 13 -15 55 0 42 3 55 15 55 12 0 15 -13 15 -55z m92 28 l28 -27
0 27 c0 17 5 27 15 27 12 0 15 -13 15 -55 0 -63 -10 -68 -52 -28 l-28 27 0
-27 c0 -17 -5 -27 -15 -27 -12 0 -15 13 -15 55 0 63 10 68 52 28z m182 11 c9
-8 16 -26 16 -39 0 -33 -26 -55 -66 -55 l-34 0 0 55 0 55 34 0 c19 0 42 -7 50
-16z m86 -39 c0 -42 -3 -55 -15 -55 -12 0 -15 13 -15 55 0 42 3 55 15 55 12 0
15 -13 15 -55z"/>
<path d="M2450 3646 c0 -25 5 -48 10 -51 6 -4 10 13 10 44 0 28 -4 51 -10 51
-5 0 -10 -20 -10 -44z"/>
<path d="M2487 3643 c8 -65 13 -67 13 -5 0 29 -4 52 -10 52 -6 0 -7 -19 -3
-47z"/>
<path d="M2493 3540 c0 -25 2 -35 4 -22 2 12 2 32 0 45 -2 12 -4 2 -4 -23z"/>
<path d="M2420 3535 c0 -19 5 -35 10 -35 6 0 10 16 10 35 0 19 -4 35 -10 35
-5 0 -10 -16 -10 -35z"/>
<path d="M2460 3536 c0 -20 5 -36 10 -36 6 0 10 13 10 29 0 17 -4 33 -10 36
-6 4 -10 -8 -10 -29z"/>
<path d="M2427 3473 c-11 -10 -8 -63 3 -63 6 0 10 16 10 35 0 36 -2 40 -13 28z"/>
<path d="M2463 3445 c0 -22 2 -30 4 -17 2 12 2 30 0 40 -3 9 -5 -1 -4 -23z"/>
<path d="M2483 3464 c-3 -8 -1 -25 5 -37 10 -20 11 -18 11 16 1 39 -5 48 -16
21z"/>
<path d="M2510 3439 c0 -38 24 -35 28 4 2 19 -1 27 -12 27 -11 0 -16 -10 -16
-31z"/>
<path d="M2420 3355 c0 -19 5 -35 10 -35 6 0 10 16 10 35 0 19 -4 35 -10 35
-5 0 -10 -16 -10 -35z"/>
<path d="M2457 3383 c-11 -17 7 -58 26 -59 13 -1 17 6 17 32 0 19 -4 34 -10
34 -5 0 -10 -6 -10 -12 0 -10 -3 -9 -9 1 -5 7 -11 9 -14 4z"/>
<path d="M2510 3355 c0 -24 5 -35 15 -35 10 0 15 11 15 35 0 24 -5 35 -15 35
-10 0 -15 -11 -15 -35z"/>
<path d="M2420 3264 c0 -21 4 -33 10 -29 6 3 10 19 10 36 0 16 -4 29 -10 29
-5 0 -10 -16 -10 -36z"/>
<path d="M2450 3288 c0 -27 13 -58 21 -52 16 9 10 64 -6 64 -8 0 -15 -6 -15
-12z"/>
<path d="M2492 3270 c0 -19 2 -27 5 -17 2 9 2 25 0 35 -3 9 -5 1 -5 -18z"/>
<path d="M2512 3268 c2 -18 8 -33 13 -33 6 0 11 15 13 33 3 24 -1 32 -13 32
-12 0 -16 -8 -13 -32z"/>
<path d="M2420 3190 c0 -16 5 -30 10 -30 6 0 10 14 10 30 0 17 -4 30 -10 30
-5 0 -10 -13 -10 -30z"/>
<path d="M2451 3203 c0 -10 4 -27 9 -38 8 -19 9 -19 9 2 1 12 4 28 7 37 4 11
1 16 -10 16 -9 0 -16 -8 -15 -17z"/>
<path d="M2488 3190 c-3 -16 -1 -30 4 -30 4 0 8 14 8 30 0 17 -2 30 -4 30 -2
0 -6 -13 -8 -30z"/>
<path d="M2510 3184 c0 -45 24 -42 28 4 2 24 -1 32 -12 32 -12 0 -16 -10 -16
-36z"/>
<path d="M2420 3106 c0 -20 5 -36 10 -36 6 0 10 13 10 29 0 17 -4 33 -10 36
-6 4 -10 -8 -10 -29z"/>
<path d="M2456 3131 c-4 -6 -3 -23 1 -38 l7 -28 7 25 c7 24 7 24 8 3 2 -39 21
-25 20 15 0 20 -3 31 -6 24 -4 -9 -8 -10 -18 -2 -9 7 -15 8 -19 1z"/>
<path d="M2517 3133 c-14 -13 -7 -63 8 -63 10 0 15 11 15 35 0 33 -8 43 -23
28z"/>
<path d="M2420 3025 c0 -14 5 -25 10 -25 6 0 10 11 10 25 0 14 -4 25 -10 25
-5 0 -10 -11 -10 -25z"/>
<path d="M2452 3025 c3 -29 14 -33 21 -7 4 16 5 16 6 0 2 -27 21 -22 21 5 0
17 -6 23 -25 25 -21 1 -24 -2 -23 -23z"/>
<path d="M2512 3025 c2 -14 8 -26 13 -26 6 0 11 12 13 26 2 18 -1 25 -13 25
-12 0 -15 -7 -13 -25z"/>
<path d="M2420 2950 c0 -16 5 -30 10 -30 6 0 10 14 10 30 0 17 -4 30 -10 30
-5 0 -10 -13 -10 -30z"/>
<path d="M2452 2952 c2 -17 10 -26 26 -28 18 -3 22 1 22 24 0 22 -5 27 -26 28
-21 2 -25 -2 -22 -24z"/>
<path d="M2510 2950 c0 -20 5 -30 15 -30 10 0 15 10 15 30 0 20 -5 30 -15 30
-10 0 -15 -10 -15 -30z"/>
<path d="M2420 2875 c0 -14 5 -25 10 -25 6 0 10 11 10 25 0 14 -4 25 -10 25
-5 0 -10 -11 -10 -25z"/>
<path d="M2450 2881 c0 -25 20 -38 21 -14 0 10 3 13 6 6 8 -20 23 -15 23 7 0
15 -7 20 -25 20 -18 0 -25 -5 -25 -19z"/>
<path d="M2510 2875 c0 -16 6 -25 15 -25 9 0 15 9 15 25 0 16 -6 25 -15 25 -9
0 -15 -9 -15 -25z"/>
<path d="M2457 2834 c-15 -16 -6 -34 18 -34 16 0 25 6 25 16 0 10 -6 14 -14
11 -8 -3 -16 -1 -18 4 -2 6 -7 7 -11 3z"/>
<path d="M2510 2820 c0 -11 7 -20 15 -20 8 0 15 9 15 20 0 11 -7 20 -15 20 -8
0 -15 -9 -15 -20z"/>
<path d="M2420 2815 c0 -8 5 -15 10 -15 6 0 10 7 10 15 0 8 -4 15 -10 15 -5 0
-10 -7 -10 -15z"/>
<path d="M2420 2760 c0 -11 5 -20 10 -20 6 0 10 9 10 20 0 11 -4 20 -10 20 -5
0 -10 -9 -10 -20z"/>
<path d="M2450 2760 c0 -15 7 -20 25 -20 18 0 25 5 25 20 0 15 -7 20 -25 20
-18 0 -25 -5 -25 -20z"/>
<path d="M2510 2760 c0 -11 7 -20 15 -20 8 0 15 9 15 20 0 11 -7 20 -15 20 -8
0 -15 -9 -15 -20z"/>
<path d="M2420 2705 c0 -8 5 -15 10 -15 6 0 10 7 10 15 0 8 -4 15 -10 15 -5 0
-10 -7 -10 -15z"/>
<path d="M2450 2705 c0 -9 9 -15 25 -15 16 0 25 6 25 15 0 9 -9 15 -25 15 -16
0 -25 -6 -25 -15z"/>
<path d="M2510 2705 c0 -8 7 -15 15 -15 8 0 15 7 15 15 0 8 -7 15 -15 15 -8 0
-15 -7 -15 -15z"/>
<path d="M2420 2650 c0 -11 5 -20 10 -20 6 0 10 9 10 20 0 11 -4 20 -10 20 -5
0 -10 -9 -10 -20z"/>
<path d="M2450 2653 c0 -12 8 -18 25 -18 17 0 25 6 25 18 0 12 -8 17 -25 17
-17 0 -25 -5 -25 -17z"/>
<path d="M2510 2650 c0 -11 7 -20 15 -20 8 0 15 9 15 20 0 11 -7 20 -15 20 -8
0 -15 -9 -15 -20z"/>
<path d="M2420 2600 c0 -5 5 -10 10 -10 6 0 10 5 10 10 0 6 -4 10 -10 10 -5 0
-10 -4 -10 -10z"/>
<path d="M2450 2600 c0 -5 11 -10 25 -10 14 0 25 5 25 10 0 6 -11 10 -25 10
-14 0 -25 -4 -25 -10z"/>
<path d="M2510 2600 c0 -5 7 -10 15 -10 8 0 15 5 15 10 0 6 -7 10 -15 10 -8 0
-15 -4 -15 -10z"/>
<path d="M2420 2555 c0 -8 5 -15 10 -15 6 0 10 7 10 15 0 8 -4 15 -10 15 -5 0
-10 -7 -10 -15z"/>
<path d="M2457 2563 c-14 -13 -6 -23 18 -23 16 0 25 6 25 15 0 15 -31 21 -43
8z"/>
<path d="M2510 2555 c0 -8 7 -15 15 -15 8 0 15 7 15 15 0 8 -7 15 -15 15 -8 0
-15 -7 -15 -15z"/>
<path d="M2410 2504 c0 -10 14 -14 45 -14 33 0 45 4 45 15 0 10 -12 14 -45 13
-31 0 -45 -5 -45 -14z"/>
<path d="M2510 2505 c0 -8 7 -15 15 -15 8 0 15 7 15 15 0 8 -7 15 -15 15 -8 0
-15 -7 -15 -15z"/>
<path d="M2364 2315 c-15 -38 1 -45 109 -45 81 0 107 3 117 15 10 12 10 18 0
30 -10 12 -36 15 -117 15 -83 0 -105 -3 -109 -15z m36 -15 c0 -5 -4 -10 -10
-10 -5 0 -10 5 -10 10 0 6 5 10 10 10 6 0 10 -4 10 -10z m70 -6 c0 -2 -7 -4
-15 -4 -8 0 -15 4 -15 10 0 5 7 7 15 4 8 -4 15 -8 15 -10z m30 -5 c0 -5 -4 -9
-10 -9 -5 0 -10 7 -10 16 0 8 5 12 10 9 6 -3 10 -10 10 -16z m30 5 c0 -8 -5
-12 -10 -9 -6 4 -8 11 -5 16 9 14 15 11 15 -7z m40 0 c0 -8 -4 -12 -10 -9 -5
3 -10 10 -10 16 0 5 5 9 10 9 6 0 10 -7 10 -16z"/>
<path d="M2373 2153 c-16 -6 -17 -39 -3 -48 6 -4 53 -7 106 -7 75 -1 99 3 111
15 13 13 14 19 3 31 -10 13 -33 16 -109 15 -53 0 -102 -3 -108 -6z"/>
<path d="M2640 2070 c0 -5 5 -10 10 -10 6 0 10 5 10 10 0 6 -4 10 -10 10 -5 0
-10 -4 -10 -10z"/>
<path d="M2716 2018 c15 -20 30 -35 33 -32 3 2 -10 19 -28 37 l-34 32 29 -37z"/>
<path d="M2256 2011 c-4 -5 -2 -12 3 -15 5 -4 12 -2 15 3 4 5 2 12 -3 15 -5 4
-12 2 -15 -3z"/>
<path d="M2371 1986 c-6 -7 -9 -20 -5 -29 9 -24 190 -29 218 -6 17 14 18 19 8
32 -18 21 -204 24 -221 3z m89 -16 c0 -5 -2 -10 -4 -10 -3 0 -8 5 -11 10 -3 6
-1 10 4 10 6 0 11 -4 11 -10z m40 0 c0 -5 -4 -10 -10 -10 -5 0 -10 5 -10 10 0
6 5 10 10 10 6 0 10 -4 10 -10z m70 0 c0 -5 -4 -10 -10 -10 -5 0 -10 5 -10 10
0 6 5 10 10 10 6 0 10 -4 10 -10z"/>
<path d="M2622 1958 c-17 -17 -15 -32 9 -54 27 -24 54 -8 54 32 0 24 -5 30
-25 32 -14 2 -31 -3 -38 -10z"/>
<path d="M2760 1960 c0 -5 5 -10 10 -10 6 0 10 5 10 10 0 6 -4 10 -10 10 -5 0
-10 -4 -10 -10z"/>
<path d="M2290 1860 c0 -5 5 -10 10 -10 6 0 10 5 10 10 0 6 -4 10 -10 10 -5 0
-10 -4 -10 -10z"/>
<path d="M3580 2585 c0 -19 5 -35 10 -35 6 0 10 16 10 35 0 19 -4 35 -10 35
-5 0 -10 -16 -10 -35z"/>
<path d="M3580 2320 c0 -22 5 -40 10 -40 6 0 10 18 10 40 0 22 -4 40 -10 40
-5 0 -10 -18 -10 -40z"/>
<path d="M3550 2230 c0 -22 5 -40 10 -40 6 0 10 18 10 40 0 22 -4 40 -10 40
-5 0 -10 -18 -10 -40z"/>
<path d="M3580 2230 c0 -22 5 -40 10 -40 6 0 10 18 10 40 0 22 -4 40 -10 40
-5 0 -10 -18 -10 -40z"/>
<path d="M3580 2140 c0 -22 5 -40 10 -40 6 0 10 18 10 40 0 22 -4 40 -10 40
-5 0 -10 -18 -10 -40z"/>
<path d="M3527 1959 c8 -8 30 -8 75 -1 l63 9 -74 2 c-55 1 -72 -2 -64 -10z"/>
<path d="M3515 1920 c3 -5 37 -10 75 -10 38 0 72 5 75 10 4 6 -23 10 -75 10
-52 0 -79 -4 -75 -10z"/>
<path d="M3510 1880 c0 -6 31 -10 74 -10 41 0 78 5 81 10 4 6 -23 10 -74 10
-47 0 -81 -4 -81 -10z"/>
<path d="M1326 1619 l-37 -40 3 -205 c3 -193 4 -207 23 -219 31 -22 43 -33 48
-47 4 -9 12 -6 26 11 20 22 21 35 21 266 0 208 -2 246 -16 259 -22 23 -27 21
-68 -25z"/>
<path d="M2520 1440 c0 -155 1 -160 20 -160 35 0 77 28 101 67 29 46 31 131 5
181 -19 37 -69 72 -103 72 -23 0 -23 -1 -23 -160z"/>
<path d="M3591 1641 c-20 -20 -21 -31 -20 -258 1 -131 4 -249 8 -263 15 -55
37 -35 115 112 l77 143 -27 50 c-16 28 -42 86 -59 129 -17 44 -40 85 -52 93
-19 13 -24 12 -42 -6z"/>
<path d="M3826 1628 c-9 -12 -16 -28 -16 -35 0 -16 42 -83 52 -83 13 0 49 70
42 82 -12 21 -47 58 -55 58 -4 0 -15 -10 -23 -22z"/>
<path d="M3090 1530 l0 -70 34 0 c80 0 117 34 102 95 -8 30 -40 45 -97 45
l-39 0 0 -70z"/>
<path d="M3818 1200 c-46 -85 -48 -112 -8 -152 26 -25 36 -29 62 -24 41 8 65
31 73 67 5 24 -2 45 -36 104 -23 41 -45 75 -48 75 -3 0 -23 -32 -43 -70z m73
-50 c23 -13 25 -47 2 -72 -20 -22 -31 -23 -55 -1 -23 21 -23 59 0 72 22 13 29
13 53 1z"/>
<path d="M2580 1001 c0 -36 13 -47 31 -25 9 11 10 20 3 32 -18 28 -34 25 -34
-7z"/>
<path d="M2360 4050 c0 -5 5 -10 10 -10 6 0 10 5 10 10 0 6 -4 10 -10 10 -5 0
-10 -4 -10 -10z"/>
<path d="M1660 3672 c-32 -15 -57 -38 -64 -59 -4 -13 -21 -27 -42 -35 -34 -12
-38 -18 -35 -51 2 -10 -8 -21 -24 -27 -42 -16 -25 -35 34 -38 46 -3 55 -7 69
-32 38 -67 122 -80 191 -30 47 35 61 62 61 123 0 52 -28 107 -66 129 -34 19
-102 30 -124 20z m20 -62 c0 -13 -7 -20 -20 -20 -13 0 -20 7 -20 20 0 13 7 20
20 20 13 0 20 -7 20 -20z m24 -46 c25 -9 19 -33 -10 -40 -29 -7 -82 12 -68 26
8 7 29 14 56 19 3 0 13 -2 22 -5z m106 -4 c0 -5 -10 -10 -22 -10 -19 0 -20 2
-8 10 19 13 30 13 30 0z m-3 -36 c1 -5 -12 -8 -30 -6 -24 1 -28 0 -17 -8 8 -5
23 -10 33 -10 9 0 17 -7 17 -15 0 -19 -4 -19 -40 0 -32 16 -36 25 -20 41 12
12 54 11 57 -2z m-212 -4 c4 -6 -5 -10 -19 -10 -14 0 -26 5 -26 10 0 6 9 10
19 10 11 0 23 -4 26 -10z m-2 -27 c-7 -2 -21 -2 -30 0 -10 3 -4 5 12 5 17 0
24 -2 18 -5z m111 1 c9 -3 16 -12 16 -20 0 -17 -85 -20 -95 -4 -11 18 49 36
79 24z m-28 -73 c-10 -16 -36 -13 -36 3 0 17 21 27 34 16 4 -5 5 -13 2 -19z"/>
<path d="M3220 3673 c-34 -7 -87 -48 -105 -83 -34 -65 -9 -155 55 -195 68 -43
154 -29 186 31 16 29 24 34 54 34 74 0 103 22 55 40 -19 7 -25 17 -25 38 0 23
-6 30 -33 40 -19 7 -39 23 -45 37 -20 43 -83 69 -142 58z m95 -63 c0 -8 -8
-16 -17 -18 -13 -2 -18 3 -18 18 0 15 5 20 18 18 9 -2 17 -10 17 -18z m-145
-50 c8 -5 11 -10 5 -10 -5 0 -17 5 -25 10 -8 5 -10 10 -5 10 6 0 17 -5 25 -10z
m155 -11 c7 -7 5 -13 -5 -19 -22 -14 -54 -12 -76 5 -16 13 -17 16 -4 25 17 12
69 5 85 -11z m-105 -34 c0 -17 -39 -45 -62 -45 -10 0 -18 7 -18 15 0 10 11 15
38 16 33 2 34 2 7 6 -42 5 -57 12 -51 21 8 13 86 1 86 -13z m180 5 c-20 -13
-53 -13 -45 0 3 6 18 10 33 10 21 0 24 -2 12 -10z m-80 -30 c28 -17 -8 -34
-67 -31 -24 1 -32 26 -10 34 21 9 61 7 77 -3z m83 3 c-7 -2 -21 -2 -30 0 -10
3 -4 5 12 5 17 0 24 -2 18 -5z m-85 -65 c-7 -19 -38 -22 -38 -4 0 10 9 16 21
16 12 0 19 -5 17 -12z"/>
<path d="M1358 3385 c-3 -3 -1 -26 4 -52 9 -42 8 -47 -16 -70 -25 -23 -25 -25
-11 -54 13 -24 19 -28 35 -19 10 5 26 10 34 10 24 0 55 -72 64 -146 8 -73 28
-97 38 -45 9 44 22 38 26 -11 2 -32 8 -44 21 -46 18 -4 19 2 14 80 -8 129 -54
227 -151 316 -48 44 -49 45 -58 37z m77 -105 c22 -25 14 -34 -39 -49 -50 -13
-56 -8 -23 23 15 14 27 30 27 36 0 16 15 12 35 -10z m60 -90 c16 -31 20 -80 7
-80 -11 0 -43 90 -36 101 8 14 12 11 29 -21z"/>
<path d="M1542 2907 c3 -24 21 -27 26 -4 2 8 -4 17 -13 21 -13 4 -16 1 -13
-17z"/>
</g>
</svg>
